<svg width="60" height="24" viewBox="0 0 60 24" fill="none" xmlns="http://www.w3.org/2000/svg">
<path d="M38 22C43.5228 22 48 17.5228 48 12C48 6.47715 43.5228 2 38 2C32.4772 2 28 6.47715 28 12C28 17.5228 32.4772 22 38 22Z" stroke="#D1D1D7" stroke-width="2" stroke-linecap="round" stroke-linejoin="round"/>
<path d="M28 12H48" stroke="#D1D1D7" stroke-width="2" stroke-linecap="round" stroke-linejoin="round"/>
<path d="M38 2C40.5013 4.73835 41.9228 8.29203 42 12C41.9228 15.708 40.5013 19.2616 38 22C35.4987 19.2616 34.0772 15.708 34 12C34.0772 8.29203 35.4987 4.73835 38 2V2Z" stroke="#D1D1D7" stroke-width="2" stroke-linecap="round" stroke-linejoin="round"/>
<path d="M57 15L59.5981 10.5H54.4019L57 15Z" fill="#D1D1D7"/>
<path d="M0.958807 16H6.48153V14.8665H2.27557V12.1946H6.14489V11.0653H2.27557V8.40625H6.4304V7.27273H0.958807V16ZM9.36115 12.1136C9.36115 11.0696 10.0004 10.473 10.8867 10.473C11.7518 10.473 12.2759 11.0398 12.2759 11.9901V16H13.5501V11.8366C13.5501 10.2173 12.6594 9.36932 11.3214 9.36932C10.337 9.36932 9.69354 9.82528 9.39098 10.5199H9.31001V9.45455H8.087V16H9.36115V12.1136ZM18.0032 18.5909C19.6694 18.5909 20.9563 17.8281 20.9563 16.1449V9.45455H19.7077V10.5156H19.614C19.3881 10.1108 18.9364 9.36932 17.7177 9.36932C16.1367 9.36932 14.9734 10.6179 14.9734 12.7017C14.9734 14.7898 16.1623 15.902 17.7092 15.902C18.9109 15.902 19.3754 15.2244 19.6055 14.8068H19.6864V16.0938C19.6864 17.1207 18.9833 17.5639 18.016 17.5639C16.9549 17.5639 16.5415 17.0312 16.3157 16.6562L15.2205 17.108C15.5657 17.9091 16.4393 18.5909 18.0032 18.5909ZM17.9904 14.8452C16.8526 14.8452 16.2603 13.9716 16.2603 12.6847C16.2603 11.4276 16.8398 10.4517 17.9904 10.4517C19.1026 10.4517 19.6992 11.3594 19.6992 12.6847C19.6992 14.0355 19.0898 14.8452 17.9904 14.8452Z" fill="#D1D1D7"/>
</svg>
